<svg width="20" height="20" viewBox="0 0 20 20" fill="none" xmlns="http://www.w3.org/2000/svg">
<path fill-rule="evenodd" clip-rule="evenodd" d="M10.0003 6.87499C8.27444 6.87499 6.87533 8.27411 6.87533 9.99999C6.87533 11.7259 8.27444 13.125 10.0003 13.125C11.7262 13.125 13.1253 11.7259 13.1253 9.99999C13.1253 8.27411 11.7262 6.87499 10.0003 6.87499ZM8.12533 9.99999C8.12533 8.96446 8.96479 8.12499 10.0003 8.12499C11.0359 8.12499 11.8753 8.96446 11.8753 9.99999C11.8753 11.0355 11.0359 11.875 10.0003 11.875C8.96479 11.875 8.12533 11.0355 8.12533 9.99999Z" fill="#0A0A0B"/>
<path fill-rule="evenodd" clip-rule="evenodd" d="M10.0003 2.70833C6.23855 2.70833 3.70474 4.96183 2.23413 6.87238L2.20761 6.90683C1.87502 7.33877 1.56871 7.7366 1.3609 8.20699C1.13836 8.71072 1.04199 9.25974 1.04199 9.99999C1.04199 10.7403 1.13836 11.2893 1.3609 11.793C1.56871 12.2634 1.87503 12.6612 2.20761 13.0932L2.23413 13.1276C3.70474 15.0382 6.23855 17.2917 10.0003 17.2917C13.7621 17.2917 16.2959 15.0382 17.7665 13.1276L17.793 13.0932C18.1256 12.6612 18.4319 12.2634 18.6398 11.793C18.8623 11.2893 18.9587 10.7403 18.9587 9.99999C18.9587 9.25974 18.8623 8.71072 18.6398 8.20699C18.4319 7.73659 18.1256 7.33876 17.793 6.90681L17.7665 6.87238C16.2959 4.96183 13.7621 2.70833 10.0003 2.70833ZM3.22467 7.63483C4.58252 5.87076 6.79229 3.95833 10.0003 3.95833C13.2084 3.95833 15.4181 5.87076 16.776 7.63483C17.1415 8.10965 17.3555 8.39338 17.4964 8.71212C17.628 9.01001 17.7087 9.37411 17.7087 9.99999C17.7087 10.6259 17.628 10.99 17.4964 11.2879C17.3555 11.6066 17.1415 11.8903 16.776 12.3652C15.4181 14.1292 13.2084 16.0417 10.0003 16.0417C6.79229 16.0417 4.58252 14.1292 3.22467 12.3652C2.85919 11.8903 2.64511 11.6066 2.50429 11.2879C2.37269 10.99 2.29199 10.6259 2.29199 9.99999C2.29199 9.37411 2.37269 9.01001 2.50429 8.71212C2.6451 8.39338 2.85919 8.10965 3.22467 7.63483Z" fill="#0A0A0B"/>
<path fill-rule="evenodd" clip-rule="evenodd" d="M10.0003 6.87499C8.27444 6.87499 6.87533 8.27411 6.87533 9.99999C6.87533 11.7259 8.27444 13.125 10.0003 13.125C11.7262 13.125 13.1253 11.7259 13.1253 9.99999C13.1253 8.27411 11.7262 6.87499 10.0003 6.87499ZM8.12533 9.99999C8.12533 8.96446 8.96479 8.12499 10.0003 8.12499C11.0359 8.12499 11.8753 8.96446 11.8753 9.99999C11.8753 11.0355 11.0359 11.875 10.0003 11.875C8.96479 11.875 8.12533 11.0355 8.12533 9.99999Z" stroke="#838383"/>
<path fill-rule="evenodd" clip-rule="evenodd" d="M10.0003 2.70833C6.23855 2.70833 3.70474 4.96183 2.23413 6.87238L2.20761 6.90683C1.87502 7.33877 1.56871 7.7366 1.3609 8.20699C1.13836 8.71072 1.04199 9.25974 1.04199 9.99999C1.04199 10.7403 1.13836 11.2893 1.3609 11.793C1.56871 12.2634 1.87503 12.6612 2.20761 13.0932L2.23413 13.1276C3.70474 15.0382 6.23855 17.2917 10.0003 17.2917C13.7621 17.2917 16.2959 15.0382 17.7665 13.1276L17.793 13.0932C18.1256 12.6612 18.4319 12.2634 18.6398 11.793C18.8623 11.2893 18.9587 10.7403 18.9587 9.99999C18.9587 9.25974 18.8623 8.71072 18.6398 8.20699C18.4319 7.73659 18.1256 7.33876 17.793 6.90681L17.7665 6.87238C16.2959 4.96183 13.7621 2.70833 10.0003 2.70833ZM3.22467 7.63483C4.58252 5.87076 6.79229 3.95833 10.0003 3.95833C13.2084 3.95833 15.4181 5.87076 16.776 7.63483C17.1415 8.10965 17.3555 8.39338 17.4964 8.71212C17.628 9.01001 17.7087 9.37411 17.7087 9.99999C17.7087 10.6259 17.628 10.99 17.4964 11.2879C17.3555 11.6066 17.1415 11.8903 16.776 12.3652C15.4181 14.1292 13.2084 16.0417 10.0003 16.0417C6.79229 16.0417 4.58252 14.1292 3.22467 12.3652C2.85919 11.8903 2.64511 11.6066 2.50429 11.2879C2.37269 10.99 2.29199 10.6259 2.29199 9.99999C2.29199 9.37411 2.37269 9.01001 2.50429 8.71212C2.6451 8.39338 2.85919 8.10965 3.22467 7.63483Z" stroke="#838383"/>
</svg>
